solid OpenSCAD_Model
  facet normal -1 0 0
    outer loop
      vertex 0 0 0
      vertex 0 9.1 3
      vertex 0 9.1 0
    endloop
  endfacet
  facet normal -1 -0 0
    outer loop
      vertex 0 9.1 3
      vertex 0 0 0
      vertex 0 0 3
    endloop
  endfacet
  facet normal 0 0 1
    outer loop
      vertex 32.25 9.1 3
      vertex 23.025 4.55 3
      vertex 32.25 0 3
    endloop
  endfacet
  facet normal 0 0 1
    outer loop
      vertex 32.25 9.1 3
      vertex 22.9479 5.0367 3
      vertex 23.025 4.55 3
    endloop
  endfacet
  facet normal 0 0 1
    outer loop
      vertex 32.25 9.1 3
      vertex 22.7242 5.47576 3
      vertex 22.9479 5.0367 3
    endloop
  endfacet
  facet normal 0 0 1
    outer loop
      vertex 32.25 9.1 3
      vertex 22.3758 5.8242 3
      vertex 22.7242 5.47576 3
    endloop
  endfacet
  facet normal 0 0 1
    outer loop
      vertex 32.25 9.1 3
      vertex 21.9367 6.04791 3
      vertex 22.3758 5.8242 3
    endloop
  endfacet
  facet normal 0 0 1
    outer loop
      vertex 32.25 9.1 3
      vertex 21.45 6.125 3
      vertex 21.9367 6.04791 3
    endloop
  endfacet
  facet normal -0 0 1
    outer loop
      vertex 16.5325 6.33545 3
      vertex 21.45 6.125 3
      vertex 32.25 9.1 3
    endloop
  endfacet
  facet normal 0 0 1
    outer loop
      vertex 19.9521 5.0367 3
      vertex 17.775 5.3446 3
      vertex 19.875 4.55 3
    endloop
  endfacet
  facet normal 0 0 1
    outer loop
      vertex 20.1758 5.47576 3
      vertex 17.775 5.3446 3
      vertex 19.9521 5.0367 3
    endloop
  endfacet
  facet normal 0 0 1
    outer loop
      vertex 20.5242 5.8242 3
      vertex 17.775 5.3446 3
      vertex 20.1758 5.47576 3
    endloop
  endfacet
  facet normal 0 0 1
    outer loop
      vertex 16.5325 6.33545 3
      vertex 20.5242 5.8242 3
      vertex 20.9633 6.04791 3
    endloop
  endfacet
  facet normal 0 0 1
    outer loop
      vertex 21.45 6.125 3
      vertex 16.5325 6.33545 3
      vertex 20.9633 6.04791 3
    endloop
  endfacet
  facet normal 0 0 1
    outer loop
      vertex 20.5242 5.8242 3
      vertex 16.5325 6.33545 3
      vertex 17.775 5.3446 3
    endloop
  endfacet
  facet normal -0 0 1
    outer loop
      vertex 12.2979 5.0367 3
      vertex 14.2936 4.55 3
      vertex 14.9832 5.98182 3
    endloop
  endfacet
  facet normal 0 0 1
    outer loop
      vertex 14.2936 4.55 3
      vertex 12.2979 5.0367 3
      vertex 12.375 4.55 3
    endloop
  endfacet
  facet normal 0 0 1
    outer loop
      vertex 14.9832 5.98182 3
      vertex 12.0742 5.47576 3
      vertex 12.2979 5.0367 3
    endloop
  endfacet
  facet normal -0 0 1
    outer loop
      vertex 11.2867 6.04791 3
      vertex 14.9832 5.98182 3
      vertex 16.5325 6.33545 3
    endloop
  endfacet
  facet normal 0 0 1
    outer loop
      vertex 14.9832 5.98182 3
      vertex 11.7258 5.8242 3
      vertex 12.0742 5.47576 3
    endloop
  endfacet
  facet normal -0 0 1
    outer loop
      vertex 0 9.1 3
      vertex 16.5325 6.33545 3
      vertex 32.25 9.1 3
    endloop
  endfacet
  facet normal 0 0 1
    outer loop
      vertex 14.9832 5.98182 3
      vertex 11.2867 6.04791 3
      vertex 11.7258 5.8242 3
    endloop
  endfacet
  facet normal 0 0 1
    outer loop
      vertex 16.5325 6.33545 3
      vertex 10.8 6.125 3
      vertex 11.2867 6.04791 3
    endloop
  endfacet
  facet normal 0 0 1
    outer loop
      vertex 9.30209 5.0367 3
      vertex 0 9.1 3
      vertex 9.225 4.55 3
    endloop
  endfacet
  facet normal 0 0 1
    outer loop
      vertex 9.5258 5.47576 3
      vertex 0 9.1 3
      vertex 9.30209 5.0367 3
    endloop
  endfacet
  facet normal 0 0 1
    outer loop
      vertex 9.87424 5.8242 3
      vertex 0 9.1 3
      vertex 9.5258 5.47576 3
    endloop
  endfacet
  facet normal 0 0 1
    outer loop
      vertex 10.3133 6.04791 3
      vertex 0 9.1 3
      vertex 9.87424 5.8242 3
    endloop
  endfacet
  facet normal 0 0 1
    outer loop
      vertex 10.8 6.125 3
      vertex 0 9.1 3
      vertex 10.3133 6.04791 3
    endloop
  endfacet
  facet normal 0 0 1
    outer loop
      vertex 16.5325 6.33545 3
      vertex 0 9.1 3
      vertex 10.8 6.125 3
    endloop
  endfacet
  facet normal -0 0 1
    outer loop
      vertex 22.9479 4.0633 3
      vertex 32.25 0 3
      vertex 23.025 4.55 3
    endloop
  endfacet
  facet normal -0 0 1
    outer loop
      vertex 22.7242 3.62424 3
      vertex 32.25 0 3
      vertex 22.9479 4.0633 3
    endloop
  endfacet
  facet normal -0 0 1
    outer loop
      vertex 22.3758 3.2758 3
      vertex 32.25 0 3
      vertex 22.7242 3.62424 3
    endloop
  endfacet
  facet normal -0 0 1
    outer loop
      vertex 21.9367 3.05209 3
      vertex 32.25 0 3
      vertex 22.3758 3.2758 3
    endloop
  endfacet
  facet normal -0 0 1
    outer loop
      vertex 21.45 2.975 3
      vertex 32.25 0 3
      vertex 21.9367 3.05209 3
    endloop
  endfacet
  facet normal 0 0 1
    outer loop
      vertex 16.5325 2.76455 3
      vertex 21.45 2.975 3
      vertex 20.9633 3.05209 3
    endloop
  endfacet
  facet normal 0 0 1
    outer loop
      vertex 17.775 3.7554 3
      vertex 19.875 4.55 3
      vertex 17.775 5.3446 3
    endloop
  endfacet
  facet normal 0 0 1
    outer loop
      vertex 19.875 4.55 3
      vertex 17.775 3.7554 3
      vertex 19.9521 4.0633 3
    endloop
  endfacet
  facet normal 0 0 1
    outer loop
      vertex 19.9521 4.0633 3
      vertex 17.775 3.7554 3
      vertex 20.1758 3.62424 3
    endloop
  endfacet
  facet normal 0 0 1
    outer loop
      vertex 20.1758 3.62424 3
      vertex 17.775 3.7554 3
      vertex 20.5242 3.2758 3
    endloop
  endfacet
  facet normal 0 0 1
    outer loop
      vertex 16.5325 2.76455 3
      vertex 20.5242 3.2758 3
      vertex 17.775 3.7554 3
    endloop
  endfacet
  facet normal 0 0 1
    outer loop
      vertex 20.5242 3.2758 3
      vertex 16.5325 2.76455 3
      vertex 20.9633 3.05209 3
    endloop
  endfacet
  facet normal 0 0 1
    outer loop
      vertex 21.45 2.975 3
      vertex 16.5325 2.76455 3
      vertex 32.25 0 3
    endloop
  endfacet
  facet normal 0 0 1
    outer loop
      vertex 12.2979 4.0633 3
      vertex 14.2936 4.55 3
      vertex 12.375 4.55 3
    endloop
  endfacet
  facet normal 0 0 1
    outer loop
      vertex 14.2936 4.55 3
      vertex 12.2979 4.0633 3
      vertex 14.9832 3.11818 3
    endloop
  endfacet
  facet normal -0 0 1
    outer loop
      vertex 12.0742 3.62424 3
      vertex 14.9832 3.11818 3
      vertex 12.2979 4.0633 3
    endloop
  endfacet
  facet normal -0 0 1
    outer loop
      vertex 11.7258 3.2758 3
      vertex 14.9832 3.11818 3
      vertex 12.0742 3.62424 3
    endloop
  endfacet
  facet normal 0 0 1
    outer loop
      vertex 11.2867 3.05209 3
      vertex 14.9832 3.11818 3
      vertex 11.7258 3.2758 3
    endloop
  endfacet
  facet normal 0 0 1
    outer loop
      vertex 14.9832 3.11818 3
      vertex 11.2867 3.05209 3
      vertex 16.5325 2.76455 3
    endloop
  endfacet
  facet normal -0 0 1
    outer loop
      vertex 10.8 2.975 3
      vertex 16.5325 2.76455 3
      vertex 11.2867 3.05209 3
    endloop
  endfacet
  facet normal 0 0 1
    outer loop
      vertex 0 0 3
      vertex 16.5325 2.76455 3
      vertex 10.8 2.975 3
    endloop
  endfacet
  facet normal 0 0 1
    outer loop
      vertex 0 0 3
      vertex 9.225 4.55 3
      vertex 0 9.1 3
    endloop
  endfacet
  facet normal 0 0 1
    outer loop
      vertex 9.225 4.55 3
      vertex 0 0 3
      vertex 9.30209 4.0633 3
    endloop
  endfacet
  facet normal 0 0 1
    outer loop
      vertex 9.30209 4.0633 3
      vertex 0 0 3
      vertex 9.5258 3.62424 3
    endloop
  endfacet
  facet normal 0 0 1
    outer loop
      vertex 16.5325 2.76455 3
      vertex 0 0 3
      vertex 32.25 0 3
    endloop
  endfacet
  facet normal 0 0 1
    outer loop
      vertex 10.3133 3.05209 3
      vertex 0 0 3
      vertex 10.8 2.975 3
    endloop
  endfacet
  facet normal 0 0 1
    outer loop
      vertex 9.87424 3.2758 3
      vertex 0 0 3
      vertex 10.3133 3.05209 3
    endloop
  endfacet
  facet normal 0 0 1
    outer loop
      vertex 9.5258 3.62424 3
      vertex 0 0 3
      vertex 9.87424 3.2758 3
    endloop
  endfacet
  facet normal 1 -0 0
    outer loop
      vertex 32.25 0 3
      vertex 32.25 9.1 0
      vertex 32.25 9.1 3
    endloop
  endfacet
  facet normal 1 0 0
    outer loop
      vertex 32.25 9.1 0
      vertex 32.25 0 3
      vertex 32.25 0 0
    endloop
  endfacet
  facet normal 0 1 -0
    outer loop
      vertex 32.25 9.1 0
      vertex 0 9.1 3
      vertex 32.25 9.1 3
    endloop
  endfacet
  facet normal 0 1 0
    outer loop
      vertex 0 9.1 3
      vertex 32.25 9.1 0
      vertex 0 9.1 0
    endloop
  endfacet
  facet normal 0 0 -1
    outer loop
      vertex 32.25 0 0
      vertex 19.0984 4.55 0
      vertex 32.25 9.1 0
    endloop
  endfacet
  facet normal 0 0 -1
    outer loop
      vertex 32.25 0 0
      vertex 17.6117 1.975 0
      vertex 19.0984 4.55 0
    endloop
  endfacet
  facet normal 0 0 -1
    outer loop
      vertex 32.25 0 0
      vertex 14.6383 1.975 0
      vertex 17.6117 1.975 0
    endloop
  endfacet
  facet normal -0 0 -1
    outer loop
      vertex 14.6383 1.975 0
      vertex 0 0 0
      vertex 13.1516 4.55 0
    endloop
  endfacet
  facet normal 0 0 -1
    outer loop
      vertex 0 0 0
      vertex 14.6383 1.975 0
      vertex 32.25 0 0
    endloop
  endfacet
  facet normal 0 0 -1
    outer loop
      vertex 17.6117 7.125 0
      vertex 32.25 9.1 0
      vertex 19.0984 4.55 0
    endloop
  endfacet
  facet normal 0 0 -1
    outer loop
      vertex 14.6383 7.125 0
      vertex 32.25 9.1 0
      vertex 17.6117 7.125 0
    endloop
  endfacet
  facet normal 0 0 -1
    outer loop
      vertex 0 9.1 0
      vertex 13.1516 4.55 0
      vertex 0 0 0
    endloop
  endfacet
  facet normal 0 0 -1
    outer loop
      vertex 14.6383 7.125 0
      vertex 0 9.1 0
      vertex 32.25 9.1 0
    endloop
  endfacet
  facet normal 0 0 -1
    outer loop
      vertex 13.1516 4.55 0
      vertex 0 9.1 0
      vertex 14.6383 7.125 0
    endloop
  endfacet
  facet normal 0 -1 0
    outer loop
      vertex 0 0 0
      vertex 32.25 0 3
      vertex 0 0 3
    endloop
  endfacet
  facet normal 0 -1 -0
    outer loop
      vertex 32.25 0 3
      vertex 0 0 0
      vertex 32.25 0 0
    endloop
  endfacet
  facet normal 0.987689 0.156433 0
    outer loop
      vertex 12.375 4.55 4
      vertex 12.2979 5.0367 3
      vertex 12.2979 5.0367 4
    endloop
  endfacet
  facet normal 0.987689 0.156433 0
    outer loop
      vertex 12.2979 5.0367 3
      vertex 12.375 4.55 4
      vertex 12.375 4.55 3
    endloop
  endfacet
  facet normal -0.987688 0.156435 0
    outer loop
      vertex 9.225 4.55 3
      vertex 9.30209 5.0367 4
      vertex 9.30209 5.0367 3
    endloop
  endfacet
  facet normal -0.987688 0.156435 0
    outer loop
      vertex 9.30209 5.0367 4
      vertex 9.225 4.55 3
      vertex 9.225 4.55 4
    endloop
  endfacet
  facet normal 0.156435 0.987688 -0
    outer loop
      vertex 11.2867 6.04791 3
      vertex 10.8 6.125 4
      vertex 11.2867 6.04791 4
    endloop
  endfacet
  facet normal 0.156435 0.987688 0
    outer loop
      vertex 10.8 6.125 4
      vertex 11.2867 6.04791 3
      vertex 10.8 6.125 3
    endloop
  endfacet
  facet normal -0.156436 -0.987688 0
    outer loop
      vertex 10.3133 3.05209 3
      vertex 10.8 2.975 4
      vertex 10.3133 3.05209 4
    endloop
  endfacet
  facet normal -0.156436 -0.987688 -0
    outer loop
      vertex 10.8 2.975 4
      vertex 10.3133 3.05209 3
      vertex 10.8 2.975 3
    endloop
  endfacet
  facet normal 0.707107 0.707107 0
    outer loop
      vertex 12.0742 5.47576 4
      vertex 11.7258 5.8242 3
      vertex 11.7258 5.8242 4
    endloop
  endfacet
  facet normal 0.707107 0.707107 0
    outer loop
      vertex 11.7258 5.8242 3
      vertex 12.0742 5.47576 4
      vertex 12.0742 5.47576 3
    endloop
  endfacet
  facet normal 0.891007 0.45399 0
    outer loop
      vertex 12.2979 5.0367 4
      vertex 12.0742 5.47576 3
      vertex 12.0742 5.47576 4
    endloop
  endfacet
  facet normal 0.891007 0.45399 0
    outer loop
      vertex 12.0742 5.47576 3
      vertex 12.2979 5.0367 4
      vertex 12.2979 5.0367 3
    endloop
  endfacet
  facet normal 0.45399 0.891007 -0
    outer loop
      vertex 11.7258 5.8242 3
      vertex 11.2867 6.04791 4
      vertex 11.7258 5.8242 4
    endloop
  endfacet
  facet normal 0.45399 0.891007 0
    outer loop
      vertex 11.2867 6.04791 4
      vertex 11.7258 5.8242 3
      vertex 11.2867 6.04791 3
    endloop
  endfacet
  facet normal -0.707107 0.707107 0
    outer loop
      vertex 9.5258 5.47576 3
      vertex 9.87424 5.8242 4
      vertex 9.87424 5.8242 3
    endloop
  endfacet
  facet normal -0.707107 0.707107 0
    outer loop
      vertex 9.87424 5.8242 4
      vertex 9.5258 5.47576 3
      vertex 9.5258 5.47576 4
    endloop
  endfacet
  facet normal -0.891007 0.45399 0
    outer loop
      vertex 9.30209 5.0367 3
      vertex 9.5258 5.47576 4
      vertex 9.5258 5.47576 3
    endloop
  endfacet
  facet normal -0.891007 0.45399 0
    outer loop
      vertex 9.5258 5.47576 4
      vertex 9.30209 5.0367 3
      vertex 9.30209 5.0367 4
    endloop
  endfacet
  facet normal 0 0 1
    outer loop
      vertex 12.2979 5.0367 4
      vertex 12.2979 4.0633 4
      vertex 12.375 4.55 4
    endloop
  endfacet
  facet normal 0 0 1
    outer loop
      vertex 12.0742 5.47576 4
      vertex 12.2979 4.0633 4
      vertex 12.2979 5.0367 4
    endloop
  endfacet
  facet normal 0 0 1
    outer loop
      vertex 12.0742 5.47576 4
      vertex 12.0742 3.62424 4
      vertex 12.2979 4.0633 4
    endloop
  endfacet
  facet normal 0 0 1
    outer loop
      vertex 11.7258 5.8242 4
      vertex 12.0742 3.62424 4
      vertex 12.0742 5.47576 4
    endloop
  endfacet
  facet normal 0 0 1
    outer loop
      vertex 11.7258 5.8242 4
      vertex 11.7258 3.2758 4
      vertex 12.0742 3.62424 4
    endloop
  endfacet
  facet normal 0 0 1
    outer loop
      vertex 11.2867 6.04791 4
      vertex 11.7258 3.2758 4
      vertex 11.7258 5.8242 4
    endloop
  endfacet
  facet normal 0 0 1
    outer loop
      vertex 11.2867 6.04791 4
      vertex 11.2867 3.05209 4
      vertex 11.7258 3.2758 4
    endloop
  endfacet
  facet normal 0 0 1
    outer loop
      vertex 10.8 6.125 4
      vertex 11.2867 3.05209 4
      vertex 11.2867 6.04791 4
    endloop
  endfacet
  facet normal 0 0 1
    outer loop
      vertex 10.8 6.125 4
      vertex 10.8 2.975 4
      vertex 11.2867 3.05209 4
    endloop
  endfacet
  facet normal -0 0 1
    outer loop
      vertex 10.3133 6.04791 4
      vertex 10.8 2.975 4
      vertex 10.8 6.125 4
    endloop
  endfacet
  facet normal 0 0 1
    outer loop
      vertex 10.3133 6.04791 4
      vertex 10.3133 3.05209 4
      vertex 10.8 2.975 4
    endloop
  endfacet
  facet normal -0 0 1
    outer loop
      vertex 9.87424 5.8242 4
      vertex 10.3133 3.05209 4
      vertex 10.3133 6.04791 4
    endloop
  endfacet
  facet normal 0 0 1
    outer loop
      vertex 9.87424 5.8242 4
      vertex 9.87424 3.2758 4
      vertex 10.3133 3.05209 4
    endloop
  endfacet
  facet normal -0 0 1
    outer loop
      vertex 9.5258 5.47576 4
      vertex 9.87424 3.2758 4
      vertex 9.87424 5.8242 4
    endloop
  endfacet
  facet normal 0 0 1
    outer loop
      vertex 9.5258 5.47576 4
      vertex 9.5258 3.62424 4
      vertex 9.87424 3.2758 4
    endloop
  endfacet
  facet normal -0 0 1
    outer loop
      vertex 9.30209 5.0367 4
      vertex 9.5258 3.62424 4
      vertex 9.5258 5.47576 4
    endloop
  endfacet
  facet normal 0 0 1
    outer loop
      vertex 9.30209 5.0367 4
      vertex 9.30209 4.0633 4
      vertex 9.5258 3.62424 4
    endloop
  endfacet
  facet normal 0 -0 1
    outer loop
      vertex 9.30209 4.0633 4
      vertex 9.30209 5.0367 4
      vertex 9.225 4.55 4
    endloop
  endfacet
  facet normal -0.45399 0.891007 0
    outer loop
      vertex 10.3133 6.04791 3
      vertex 9.87424 5.8242 4
      vertex 10.3133 6.04791 4
    endloop
  endfacet
  facet normal -0.45399 0.891007 0
    outer loop
      vertex 9.87424 5.8242 4
      vertex 10.3133 6.04791 3
      vertex 9.87424 5.8242 3
    endloop
  endfacet
  facet normal 0.891007 -0.45399 0
    outer loop
      vertex 12.0742 3.62424 4
      vertex 12.2979 4.0633 3
      vertex 12.2979 4.0633 4
    endloop
  endfacet
  facet normal 0.891007 -0.45399 0
    outer loop
      vertex 12.2979 4.0633 3
      vertex 12.0742 3.62424 4
      vertex 12.0742 3.62424 3
    endloop
  endfacet
  facet normal -0.707107 -0.707107 0
    outer loop
      vertex 9.87424 3.2758 3
      vertex 9.5258 3.62424 4
      vertex 9.5258 3.62424 3
    endloop
  endfacet
  facet normal -0.707107 -0.707107 0
    outer loop
      vertex 9.5258 3.62424 4
      vertex 9.87424 3.2758 3
      vertex 9.87424 3.2758 4
    endloop
  endfacet
  facet normal -0.987688 -0.156436 0
    outer loop
      vertex 9.30209 4.0633 3
      vertex 9.225 4.55 4
      vertex 9.225 4.55 3
    endloop
  endfacet
  facet normal -0.987688 -0.156436 0
    outer loop
      vertex 9.225 4.55 4
      vertex 9.30209 4.0633 3
      vertex 9.30209 4.0633 4
    endloop
  endfacet
  facet normal -0.156436 0.987688 0
    outer loop
      vertex 10.8 6.125 3
      vertex 10.3133 6.04791 4
      vertex 10.8 6.125 4
    endloop
  endfacet
  facet normal -0.156436 0.987688 0
    outer loop
      vertex 10.3133 6.04791 4
      vertex 10.8 6.125 3
      vertex 10.3133 6.04791 3
    endloop
  endfacet
  facet normal 0.987688 -0.156434 0
    outer loop
      vertex 12.2979 4.0633 4
      vertex 12.375 4.55 3
      vertex 12.375 4.55 4
    endloop
  endfacet
  facet normal 0.987688 -0.156434 0
    outer loop
      vertex 12.375 4.55 3
      vertex 12.2979 4.0633 4
      vertex 12.2979 4.0633 3
    endloop
  endfacet
  facet normal 0.156435 -0.987688 0
    outer loop
      vertex 10.8 2.975 3
      vertex 11.2867 3.05209 4
      vertex 10.8 2.975 4
    endloop
  endfacet
  facet normal 0.156435 -0.987688 0
    outer loop
      vertex 11.2867 3.05209 4
      vertex 10.8 2.975 3
      vertex 11.2867 3.05209 3
    endloop
  endfacet
  facet normal 0.707107 -0.707107 0
    outer loop
      vertex 11.7258 3.2758 4
      vertex 12.0742 3.62424 3
      vertex 12.0742 3.62424 4
    endloop
  endfacet
  facet normal 0.707107 -0.707107 0
    outer loop
      vertex 12.0742 3.62424 3
      vertex 11.7258 3.2758 4
      vertex 11.7258 3.2758 3
    endloop
  endfacet
  facet normal -0.45399 -0.891007 0
    outer loop
      vertex 9.87424 3.2758 3
      vertex 10.3133 3.05209 4
      vertex 9.87424 3.2758 4
    endloop
  endfacet
  facet normal -0.45399 -0.891007 -0
    outer loop
      vertex 10.3133 3.05209 4
      vertex 9.87424 3.2758 3
      vertex 10.3133 3.05209 3
    endloop
  endfacet
  facet normal -0.891007 -0.45399 0
    outer loop
      vertex 9.5258 3.62424 3
      vertex 9.30209 4.0633 4
      vertex 9.30209 4.0633 3
    endloop
  endfacet
  facet normal -0.891007 -0.45399 0
    outer loop
      vertex 9.30209 4.0633 4
      vertex 9.5258 3.62424 3
      vertex 9.5258 3.62424 4
    endloop
  endfacet
  facet normal 0.45399 -0.891007 0
    outer loop
      vertex 11.2867 3.05209 3
      vertex 11.7258 3.2758 4
      vertex 11.2867 3.05209 4
    endloop
  endfacet
  facet normal 0.45399 -0.891007 0
    outer loop
      vertex 11.7258 3.2758 4
      vertex 11.2867 3.05209 3
      vertex 11.7258 3.2758 3
    endloop
  endfacet
  facet normal 0.987689 0.156433 0
    outer loop
      vertex 23.025 4.55 4
      vertex 22.9479 5.0367 3
      vertex 22.9479 5.0367 4
    endloop
  endfacet
  facet normal 0.987689 0.156433 0
    outer loop
      vertex 22.9479 5.0367 3
      vertex 23.025 4.55 4
      vertex 23.025 4.55 3
    endloop
  endfacet
  facet normal -0.987688 -0.156434 0
    outer loop
      vertex 19.9521 4.0633 3
      vertex 19.875 4.55 4
      vertex 19.875 4.55 3
    endloop
  endfacet
  facet normal -0.987688 -0.156434 0
    outer loop
      vertex 19.875 4.55 4
      vertex 19.9521 4.0633 3
      vertex 19.9521 4.0633 4
    endloop
  endfacet
  facet normal -0.156435 0.987688 0
    outer loop
      vertex 21.45 6.125 3
      vertex 20.9633 6.04791 4
      vertex 21.45 6.125 4
    endloop
  endfacet
  facet normal -0.156435 0.987688 0
    outer loop
      vertex 20.9633 6.04791 4
      vertex 21.45 6.125 3
      vertex 20.9633 6.04791 3
    endloop
  endfacet
  facet normal 0.156436 -0.987688 0
    outer loop
      vertex 21.45 2.975 3
      vertex 21.9367 3.05209 4
      vertex 21.45 2.975 4
    endloop
  endfacet
  facet normal 0.156436 -0.987688 0
    outer loop
      vertex 21.9367 3.05209 4
      vertex 21.45 2.975 3
      vertex 21.9367 3.05209 3
    endloop
  endfacet
  facet normal 0.45399 -0.891007 0
    outer loop
      vertex 21.9367 3.05209 3
      vertex 22.3758 3.2758 4
      vertex 21.9367 3.05209 4
    endloop
  endfacet
  facet normal 0.45399 -0.891007 0
    outer loop
      vertex 22.3758 3.2758 4
      vertex 21.9367 3.05209 3
      vertex 22.3758 3.2758 3
    endloop
  endfacet
  facet normal 0.707107 0.707107 0
    outer loop
      vertex 22.7242 5.47576 4
      vertex 22.3758 5.8242 3
      vertex 22.3758 5.8242 4
    endloop
  endfacet
  facet normal 0.707107 0.707107 0
    outer loop
      vertex 22.3758 5.8242 3
      vertex 22.7242 5.47576 4
      vertex 22.7242 5.47576 3
    endloop
  endfacet
  facet normal 0.891006 0.453991 0
    outer loop
      vertex 22.9479 5.0367 4
      vertex 22.7242 5.47576 3
      vertex 22.7242 5.47576 4
    endloop
  endfacet
  facet normal 0.891006 0.453991 0
    outer loop
      vertex 22.7242 5.47576 3
      vertex 22.9479 5.0367 4
      vertex 22.9479 5.0367 3
    endloop
  endfacet
  facet normal -0.707105 0.707109 0
    outer loop
      vertex 20.5242 5.8242 3
      vertex 20.1758 5.47576 4
      vertex 20.5242 5.8242 4
    endloop
  endfacet
  facet normal -0.707105 0.707109 0
    outer loop
      vertex 20.1758 5.47576 4
      vertex 20.5242 5.8242 3
      vertex 20.1758 5.47576 3
    endloop
  endfacet
  facet normal -0.891008 0.453988 0
    outer loop
      vertex 19.9521 5.0367 3
      vertex 20.1758 5.47576 4
      vertex 20.1758 5.47576 3
    endloop
  endfacet
  facet normal -0.891008 0.453988 0
    outer loop
      vertex 20.1758 5.47576 4
      vertex 19.9521 5.0367 3
      vertex 19.9521 5.0367 4
    endloop
  endfacet
  facet normal -0.45399 0.891007 0
    outer loop
      vertex 20.9633 6.04791 3
      vertex 20.5242 5.8242 4
      vertex 20.9633 6.04791 4
    endloop
  endfacet
  facet normal -0.45399 0.891007 0
    outer loop
      vertex 20.5242 5.8242 4
      vertex 20.9633 6.04791 3
      vertex 20.5242 5.8242 3
    endloop
  endfacet
  facet normal 0.156436 0.987688 -0
    outer loop
      vertex 21.9367 6.04791 3
      vertex 21.45 6.125 4
      vertex 21.9367 6.04791 4
    endloop
  endfacet
  facet normal 0.156436 0.987688 0
    outer loop
      vertex 21.45 6.125 4
      vertex 21.9367 6.04791 3
      vertex 21.45 6.125 3
    endloop
  endfacet
  facet normal 0.45399 0.891007 -0
    outer loop
      vertex 22.3758 5.8242 3
      vertex 21.9367 6.04791 4
      vertex 22.3758 5.8242 4
    endloop
  endfacet
  facet normal 0.45399 0.891007 0
    outer loop
      vertex 21.9367 6.04791 4
      vertex 22.3758 5.8242 3
      vertex 21.9367 6.04791 3
    endloop
  endfacet
  facet normal -0.987689 0.156433 0
    outer loop
      vertex 19.875 4.55 3
      vertex 19.9521 5.0367 4
      vertex 19.9521 5.0367 3
    endloop
  endfacet
  facet normal -0.987689 0.156433 0
    outer loop
      vertex 19.9521 5.0367 4
      vertex 19.875 4.55 3
      vertex 19.875 4.55 4
    endloop
  endfacet
  facet normal 0 0 1
    outer loop
      vertex 22.9479 5.0367 4
      vertex 22.9479 4.0633 4
      vertex 23.025 4.55 4
    endloop
  endfacet
  facet normal 0 0 1
    outer loop
      vertex 22.7242 5.47576 4
      vertex 22.9479 4.0633 4
      vertex 22.9479 5.0367 4
    endloop
  endfacet
  facet normal 0 0 1
    outer loop
      vertex 22.7242 5.47576 4
      vertex 22.7242 3.62424 4
      vertex 22.9479 4.0633 4
    endloop
  endfacet
  facet normal 0 0 1
    outer loop
      vertex 22.3758 5.8242 4
      vertex 22.7242 3.62424 4
      vertex 22.7242 5.47576 4
    endloop
  endfacet
  facet normal 0 0 1
    outer loop
      vertex 22.3758 5.8242 4
      vertex 22.3758 3.2758 4
      vertex 22.7242 3.62424 4
    endloop
  endfacet
  facet normal 0 0 1
    outer loop
      vertex 21.9367 6.04791 4
      vertex 22.3758 3.2758 4
      vertex 22.3758 5.8242 4
    endloop
  endfacet
  facet normal 0 0 1
    outer loop
      vertex 21.9367 6.04791 4
      vertex 21.9367 3.05209 4
      vertex 22.3758 3.2758 4
    endloop
  endfacet
  facet normal 0 0 1
    outer loop
      vertex 21.45 6.125 4
      vertex 21.9367 3.05209 4
      vertex 21.9367 6.04791 4
    endloop
  endfacet
  facet normal 0 0 1
    outer loop
      vertex 21.45 6.125 4
      vertex 21.45 2.975 4
      vertex 21.9367 3.05209 4
    endloop
  endfacet
  facet normal -0 0 1
    outer loop
      vertex 20.9633 6.04791 4
      vertex 21.45 2.975 4
      vertex 21.45 6.125 4
    endloop
  endfacet
  facet normal 0 0 1
    outer loop
      vertex 20.9633 6.04791 4
      vertex 20.9633 3.05209 4
      vertex 21.45 2.975 4
    endloop
  endfacet
  facet normal -0 0 1
    outer loop
      vertex 20.5242 5.8242 4
      vertex 20.9633 3.05209 4
      vertex 20.9633 6.04791 4
    endloop
  endfacet
  facet normal 0 0 1
    outer loop
      vertex 20.5242 5.8242 4
      vertex 20.5242 3.2758 4
      vertex 20.9633 3.05209 4
    endloop
  endfacet
  facet normal -0 0 1
    outer loop
      vertex 20.1758 5.47576 4
      vertex 20.5242 3.2758 4
      vertex 20.5242 5.8242 4
    endloop
  endfacet
  facet normal 0 0 1
    outer loop
      vertex 20.1758 5.47576 4
      vertex 20.1758 3.62424 4
      vertex 20.5242 3.2758 4
    endloop
  endfacet
  facet normal -0 0 1
    outer loop
      vertex 19.9521 5.0367 4
      vertex 20.1758 3.62424 4
      vertex 20.1758 5.47576 4
    endloop
  endfacet
  facet normal 0 0 1
    outer loop
      vertex 19.9521 5.0367 4
      vertex 19.9521 4.0633 4
      vertex 20.1758 3.62424 4
    endloop
  endfacet
  facet normal 0 -0 1
    outer loop
      vertex 19.9521 4.0633 4
      vertex 19.9521 5.0367 4
      vertex 19.875 4.55 4
    endloop
  endfacet
  facet normal 0.987688 -0.156434 0
    outer loop
      vertex 22.9479 4.0633 4
      vertex 23.025 4.55 3
      vertex 23.025 4.55 4
    endloop
  endfacet
  facet normal 0.987688 -0.156434 0
    outer loop
      vertex 23.025 4.55 3
      vertex 22.9479 4.0633 4
      vertex 22.9479 4.0633 3
    endloop
  endfacet
  facet normal 0.707107 -0.707107 0
    outer loop
      vertex 22.3758 3.2758 4
      vertex 22.7242 3.62424 3
      vertex 22.7242 3.62424 4
    endloop
  endfacet
  facet normal 0.707107 -0.707107 0
    outer loop
      vertex 22.7242 3.62424 3
      vertex 22.3758 3.2758 4
      vertex 22.3758 3.2758 3
    endloop
  endfacet
  facet normal 0.891006 -0.453991 0
    outer loop
      vertex 22.7242 3.62424 4
      vertex 22.9479 4.0633 3
      vertex 22.9479 4.0633 4
    endloop
  endfacet
  facet normal 0.891006 -0.453991 0
    outer loop
      vertex 22.9479 4.0633 3
      vertex 22.7242 3.62424 4
      vertex 22.7242 3.62424 3
    endloop
  endfacet
  facet normal -0.707105 -0.707109 0
    outer loop
      vertex 20.1758 3.62424 3
      vertex 20.5242 3.2758 4
      vertex 20.1758 3.62424 4
    endloop
  endfacet
  facet normal -0.707105 -0.707109 -0
    outer loop
      vertex 20.5242 3.2758 4
      vertex 20.1758 3.62424 3
      vertex 20.5242 3.2758 3
    endloop
  endfacet
  facet normal -0.891008 -0.453988 0
    outer loop
      vertex 20.1758 3.62424 3
      vertex 19.9521 4.0633 4
      vertex 19.9521 4.0633 3
    endloop
  endfacet
  facet normal -0.891008 -0.453988 0
    outer loop
      vertex 19.9521 4.0633 4
      vertex 20.1758 3.62424 3
      vertex 20.1758 3.62424 4
    endloop
  endfacet
  facet normal -0.156435 -0.987688 0
    outer loop
      vertex 20.9633 3.05209 3
      vertex 21.45 2.975 4
      vertex 20.9633 3.05209 4
    endloop
  endfacet
  facet normal -0.156435 -0.987688 -0
    outer loop
      vertex 21.45 2.975 4
      vertex 20.9633 3.05209 3
      vertex 21.45 2.975 3
    endloop
  endfacet
  facet normal -0.45399 -0.891007 0
    outer loop
      vertex 20.5242 3.2758 3
      vertex 20.9633 3.05209 4
      vertex 20.5242 3.2758 4
    endloop
  endfacet
  facet normal -0.45399 -0.891007 -0
    outer loop
      vertex 20.9633 3.05209 4
      vertex 20.5242 3.2758 3
      vertex 20.9633 3.05209 3
    endloop
  endfacet
  facet normal 0.900969 0.433884 0
    outer loop
      vertex 14.9832 3.11818 3
      vertex 14.2936 4.55 1.2
      vertex 14.2936 4.55 3
    endloop
  endfacet
  facet normal 0.900969 0.433884 0
    outer loop
      vertex 14.2936 4.55 1.2
      vertex 14.9832 3.11818 3
      vertex 14.9832 3.11818 1.2
    endloop
  endfacet
  facet normal 0.222521 0.974928 -0
    outer loop
      vertex 16.5325 2.76455 1.2
      vertex 14.9832 3.11818 3
      vertex 16.5325 2.76455 3
    endloop
  endfacet
  facet normal 0.222521 0.974928 0
    outer loop
      vertex 14.9832 3.11818 3
      vertex 16.5325 2.76455 1.2
      vertex 14.9832 3.11818 1.2
    endloop
  endfacet
  facet normal -1 0 0
    outer loop
      vertex 17.775 3.7554 1.2
      vertex 17.775 5.3446 3
      vertex 17.775 5.3446 1.2
    endloop
  endfacet
  facet normal -1 -0 0
    outer loop
      vertex 17.775 5.3446 3
      vertex 17.775 3.7554 1.2
      vertex 17.775 3.7554 3
    endloop
  endfacet
  facet normal 0.900969 -0.433884 0
    outer loop
      vertex 14.2936 4.55 3
      vertex 14.9832 5.98182 1.2
      vertex 14.9832 5.98182 3
    endloop
  endfacet
  facet normal 0.900969 -0.433884 0
    outer loop
      vertex 14.9832 5.98182 1.2
      vertex 14.2936 4.55 3
      vertex 14.2936 4.55 1.2
    endloop
  endfacet
  facet normal -0.62349 0.781831 0
    outer loop
      vertex 17.775 3.7554 1.2
      vertex 16.5325 2.76455 3
      vertex 17.775 3.7554 3
    endloop
  endfacet
  facet normal -0.62349 0.781831 0
    outer loop
      vertex 16.5325 2.76455 3
      vertex 17.775 3.7554 1.2
      vertex 16.5325 2.76455 1.2
    endloop
  endfacet
  facet normal 0.222521 -0.974928 0
    outer loop
      vertex 14.9832 5.98182 1.2
      vertex 16.5325 6.33545 3
      vertex 14.9832 5.98182 3
    endloop
  endfacet
  facet normal 0.222521 -0.974928 0
    outer loop
      vertex 16.5325 6.33545 3
      vertex 14.9832 5.98182 1.2
      vertex 16.5325 6.33545 1.2
    endloop
  endfacet
  facet normal -0.62349 -0.781831 0
    outer loop
      vertex 16.5325 6.33545 1.2
      vertex 17.775 5.3446 3
      vertex 16.5325 6.33545 3
    endloop
  endfacet
  facet normal -0.62349 -0.781831 -0
    outer loop
      vertex 17.775 5.3446 3
      vertex 16.5325 6.33545 1.2
      vertex 17.775 5.3446 1.2
    endloop
  endfacet
  facet normal -0.866025 -0.500001 0
    outer loop
      vertex 19.0984 4.55 0
      vertex 17.6117 7.125 1.2
      vertex 17.6117 7.125 0
    endloop
  endfacet
  facet normal -0.866025 -0.500001 0
    outer loop
      vertex 17.6117 7.125 1.2
      vertex 19.0984 4.55 0
      vertex 19.0984 4.55 1.2
    endloop
  endfacet
  facet normal 0.866025 -0.5 0
    outer loop
      vertex 13.1516 4.55 1.2
      vertex 14.6383 7.125 0
      vertex 14.6383 7.125 1.2
    endloop
  endfacet
  facet normal 0.866025 -0.5 0
    outer loop
      vertex 14.6383 7.125 0
      vertex 13.1516 4.55 1.2
      vertex 13.1516 4.55 0
    endloop
  endfacet
  facet normal 0 -1 0
    outer loop
      vertex 14.6383 7.125 0
      vertex 17.6117 7.125 1.2
      vertex 14.6383 7.125 1.2
    endloop
  endfacet
  facet normal 0 -1 -0
    outer loop
      vertex 17.6117 7.125 1.2
      vertex 14.6383 7.125 0
      vertex 17.6117 7.125 0
    endloop
  endfacet
  facet normal 0.866025 0.5 0
    outer loop
      vertex 14.6383 1.975 1.2
      vertex 13.1516 4.55 0
      vertex 13.1516 4.55 1.2
    endloop
  endfacet
  facet normal 0.866025 0.5 0
    outer loop
      vertex 13.1516 4.55 0
      vertex 14.6383 1.975 1.2
      vertex 14.6383 1.975 0
    endloop
  endfacet
  facet normal 0 0 -1
    outer loop
      vertex 17.6117 1.975 1.2
      vertex 17.775 3.7554 1.2
      vertex 19.0984 4.55 1.2
    endloop
  endfacet
  facet normal 0 0 -1
    outer loop
      vertex 17.6117 1.975 1.2
      vertex 16.5325 2.76455 1.2
      vertex 17.775 3.7554 1.2
    endloop
  endfacet
  facet normal 0 0 -1
    outer loop
      vertex 14.6383 1.975 1.2
      vertex 16.5325 2.76455 1.2
      vertex 17.6117 1.975 1.2
    endloop
  endfacet
  facet normal -0 0 -1
    outer loop
      vertex 16.5325 2.76455 1.2
      vertex 14.6383 1.975 1.2
      vertex 14.9832 3.11818 1.2
    endloop
  endfacet
  facet normal 0 0 -1
    outer loop
      vertex 13.1516 4.55 1.2
      vertex 14.9832 3.11818 1.2
      vertex 14.6383 1.975 1.2
    endloop
  endfacet
  facet normal 0 0 -1
    outer loop
      vertex 14.9832 3.11818 1.2
      vertex 13.1516 4.55 1.2
      vertex 14.2936 4.55 1.2
    endloop
  endfacet
  facet normal 0 0 -1
    outer loop
      vertex 17.775 5.3446 1.2
      vertex 19.0984 4.55 1.2
      vertex 17.775 3.7554 1.2
    endloop
  endfacet
  facet normal 0 0 -1
    outer loop
      vertex 17.775 5.3446 1.2
      vertex 17.6117 7.125 1.2
      vertex 19.0984 4.55 1.2
    endloop
  endfacet
  facet normal 0 0 -1
    outer loop
      vertex 16.5325 6.33545 1.2
      vertex 17.6117 7.125 1.2
      vertex 17.775 5.3446 1.2
    endloop
  endfacet
  facet normal 0 0 -1
    outer loop
      vertex 14.6383 7.125 1.2
      vertex 16.5325 6.33545 1.2
      vertex 14.9832 5.98182 1.2
    endloop
  endfacet
  facet normal 0 0 -1
    outer loop
      vertex 16.5325 6.33545 1.2
      vertex 14.6383 7.125 1.2
      vertex 17.6117 7.125 1.2
    endloop
  endfacet
  facet normal 0 0 -1
    outer loop
      vertex 13.1516 4.55 1.2
      vertex 14.9832 5.98182 1.2
      vertex 14.2936 4.55 1.2
    endloop
  endfacet
  facet normal -0 0 -1
    outer loop
      vertex 14.9832 5.98182 1.2
      vertex 13.1516 4.55 1.2
      vertex 14.6383 7.125 1.2
    endloop
  endfacet
  facet normal -0.866025 0.500001 0
    outer loop
      vertex 17.6117 1.975 0
      vertex 19.0984 4.55 1.2
      vertex 19.0984 4.55 0
    endloop
  endfacet
  facet normal -0.866025 0.500001 0
    outer loop
      vertex 19.0984 4.55 1.2
      vertex 17.6117 1.975 0
      vertex 17.6117 1.975 1.2
    endloop
  endfacet
  facet normal 0 1 -0
    outer loop
      vertex 17.6117 1.975 0
      vertex 14.6383 1.975 1.2
      vertex 17.6117 1.975 1.2
    endloop
  endfacet
  facet normal 0 1 0
    outer loop
      vertex 14.6383 1.975 1.2
      vertex 17.6117 1.975 0
      vertex 14.6383 1.975 0
    endloop
  endfacet
endsolid OpenSCAD_Model
